<?xml version="1.0" encoding="UTF-8"?>
<svg id="_レイヤー_1" data-name=" レイヤー 1" xmlns="http://www.w3.org/2000/svg" version="1.1" viewBox="0 0 150 150">
  <defs>
    <style>
      .cls-1 {
        fill: #231815;
      }

      .cls-1, .cls-2 {
        stroke-width: 0px;
      }

      .cls-2 {
        fill: #fff;
      }
    </style>
  </defs>
  <circle class="cls-2" cx="75" cy="75" r="75"/>
  <path class="cls-1" d="M90.6,72.1l-19.9-19.9c-1.5-1.5-4-1.5-5.5,0-.7.7-1.2,1.7-1.2,2.8s.4,2,1.2,2.8l17.2,17.2-17.2,17.2c-1.6,1.6-1.6,4,0,5.5.7.7,1.7,1.2,2.7,1.2h.7c0,0,0-.1,0-.1.8-.1,1.5-.5,2.1-1.1l19.9-19.9c.7-.7,1.2-1.7,1.2-2.8s-.4-2-1.2-2.8Z"/>
</svg>