<?xml version="1.0" encoding="UTF-8"?>
<svg id="Layer_1" data-name="Layer 1" xmlns="http://www.w3.org/2000/svg" version="1.1" viewBox="0 0 150 150">
  <defs>
    <style>
      .cls-1 {
        fill: #e60012;
        stroke-width: 0px;
      }
    </style>
  </defs>
  <path class="cls-1" d="M107.5,118.3H12.5c-5.7,0-10.3-4.6-10.3-10.3v-4.1c0-5.7,4.6-10.3,10.3-10.3h95.1c5.7,0,10.3,4.6,10.3,10.3v4.1c0,5.7-4.6,10.3-10.3,10.3ZM12.5,99.7c-2.3,0-4.2,1.9-4.2,4.2v4.1c0,2.3,1.9,4.2,4.2,4.2h95.1c2.3,0,4.2-1.9,4.2-4.2v-4.1c0-2.3-1.9-4.2-4.2-4.2H12.5Z"/>
  <path class="cls-1" d="M29.9,150h-13.3c-1.7,0-3.1-1.4-3.1-3.1v-31.7c0-1.7,1.4-3.1,3.1-3.1h20.1c.9,0,1.8.4,2.4,1.1.6.7.8,1.7.6,2.6l-6.8,31.7c-.3,1.4-1.5,2.4-3,2.4ZM19.6,143.9h7.8l5.5-25.6h-13.3v25.6Z"/>
  <path class="cls-1" d="M103.4,150h-13.3c-1.4,0-2.7-1-3-2.4l-6.8-31.7c-.2-.9,0-1.8.6-2.6.6-.7,1.5-1.1,2.4-1.1h20.1c1.7,0,3.1,1.4,3.1,3.1v31.7c0,1.7-1.4,3.1-3.1,3.1ZM92.6,143.9h7.8v-25.6h-13.3l5.5,25.6Z"/>
  <path class="cls-1" d="M144.8,150h-45.4c-1.7,0-3.1-1.4-3.1-3.1s1.4-3.1,3.1-3.1h42.4V61.8c0-.8-.6-1.4-1.4-1.4H53.4c-.8,0-1.4.6-1.4,1.4v34.8c0,1.7-1.4,3.1-3.1,3.1s-3.1-1.4-3.1-3.1v-34.8c0-4.2,3.4-7.5,7.5-7.5h86.9c4.2,0,7.5,3.4,7.5,7.5v85.1c0,1.7-1.4,3.1-3.1,3.1Z"/>
  <path class="cls-1" d="M94.2,150h-45.2c-1.7,0-3.1-1.4-3.1-3.1v-31.7c0-1.7,1.4-3.1,3.1-3.1s3.1,1.4,3.1,3.1v28.6h42.1c1.7,0,3.1,1.4,3.1,3.1s-1.4,3.1-3.1,3.1Z"/>
  <path class="cls-1" d="M144.8,74.5H49c-1.7,0-3.1-1.4-3.1-3.1s1.4-3.1,3.1-3.1h95.8c1.7,0,3.1,1.4,3.1,3.1s-1.4,3.1-3.1,3.1Z"/>
  <path class="cls-1" d="M96.9,99.7c-1.7,0-3.1-1.4-3.1-3.1v-25.2c0-1.7,1.4-3.1,3.1-3.1s3.1,1.4,3.1,3.1v25.2c0,1.7-1.4,3.1-3.1,3.1Z"/>
  <path class="cls-1" d="M120.7,96.6c-1.7,0-3.1-1.4-3.1-3.1v-22.1c0-1.7,1.4-3.1,3.1-3.1s3.1,1.4,3.1,3.1v22.1c0,1.7-1.4,3.1-3.1,3.1Z"/>
  <path class="cls-1" d="M120.7,150c-1.7,0-3.1-1.4-3.1-3.1v-29.3c0-1.7,1.4-3.1,3.1-3.1s3.1,1.4,3.1,3.1v29.3c0,1.7-1.4,3.1-3.1,3.1Z"/>
  <path class="cls-1" d="M73,99.7c-1.7,0-3.1-1.4-3.1-3.1v-25.2c0-1.7,1.4-3.1,3.1-3.1s3.1,1.4,3.1,3.1v25.2c0,1.7-1.4,3.1-3.1,3.1Z"/>
  <path class="cls-1" d="M73,150c-1.7,0-3.1-1.4-3.1-3.1v-31.7c0-1.7,1.4-3.1,3.1-3.1s3.1,1.4,3.1,3.1v31.7c0,1.7-1.4,3.1-3.1,3.1Z"/>
  <path class="cls-1" d="M64.3,50.4c-1.7,0-3.1-1.4-3.1-3.1,0-2.6-2.1-4.8-4.8-4.8h-21.1c-6.6,0-11.9-5.3-11.9-11.9s5.3-11.9,11.9-11.9h35.5c2.5,0,4.5-2,4.5-4.5s-2-4.5-4.5-4.5h-26.6c-1.7,0-3.1-1.4-3.1-3.1s1.4-3.1,3.1-3.1h26.6c5.8,0,10.6,4.8,10.6,10.6s-4.8,10.6-10.6,10.6h-35.5c-3.2,0-5.8,2.6-5.8,5.8s2.6,5.8,5.8,5.8h21.1c6,0,10.9,4.9,10.9,10.9s-1.4,3.1-3.1,3.1Z"/>
  <path class="cls-1" d="M108.4,50.4c-1.7,0-3.1-1.4-3.1-3.1,0-9.2,7.4-16.6,16.6-16.6h13.7c2.4,0,4.4-2,4.4-4.4s-2-4.4-4.4-4.4h-10.3c-6.1,0-11-4.9-11-11S119.2,0,125.3,0h14c1.7,0,3.1,1.4,3.1,3.1s-1.4,3.1-3.1,3.1h-14c-2.7,0-4.9,2.2-4.9,4.9s2.2,4.9,4.9,4.9h10.3c5.8,0,10.5,4.7,10.5,10.5s-4.7,10.5-10.5,10.5h-13.7c-5.8,0-10.5,4.7-10.5,10.5s-1.4,3.1-3.1,3.1Z"/>
  <path class="cls-1" d="M93.4,46.9c-1.7,0-3.1-1.4-3.1-3.1V4.1c0-1.7,1.4-3.1,3.1-3.1s3.1,1.4,3.1,3.1v39.7c0,1.7-1.4,3.1-3.1,3.1Z"/>
  <path class="cls-1" d="M144.8,150H5.2c-1.7,0-3.1-1.4-3.1-3.1s1.4-3.1,3.1-3.1h139.6c1.7,0,3.1,1.4,3.1,3.1s-1.4,3.1-3.1,3.1Z"/>
</svg>