<?xml version="1.0" encoding="UTF-8"?>
<svg id="_レイヤー_1" data-name="レイヤー 1" xmlns="http://www.w3.org/2000/svg" version="1.1" viewBox="0 0 150 150">
  <defs>
    <style>
      .cls-1 {
        fill: #da2b2b;
        stroke-width: 0px;
      }
    </style>
  </defs>
  <path class="cls-1" d="M149.9,298.3l-2.5-5.6-26.5-58.4h-37c-.5.9-1,1.7-1.5,2.6-1.4,2.4-2.7,4.6-4,6.6h20.5,0c.3.4,1,1.6,1.3,3.1l4.5-1c-.2-.8-.4-1.4-.6-2.1h10.9l21.1,46.5h-58.1l3.9-.6h0c0-.3-.2-1.6-.2-3.5s0-.5,0-.7h-4.6c0,.2,0,.5,0,.7,0,2.1.2,3.7.2,4.1h-27.8c0-.8.1-1.5.1-2.2h-4.6c0,.7,0,1.4-.2,2.2H14l11.3-25c.7.2,1.5.5,2.5,1l1.8-4.2c-.9-.4-1.7-.7-2.4-1l7.8-17.3h11.4c-1.2-2-2.5-4.2-4-6.6-.5-.9-1-1.7-1.5-2.6h-11.9L0,298.3c0,.2,0,.4,0,.6.1.2.3.3.6.3h148.7c.2,0,.4-.1.6-.3.1-.2.1-.4,0-.6Z"/>
  <g>
    <path class="cls-1" d="M17.4,131.9h-2.5c-3.1,0-5.7-2.6-5.7-5.7v-50.2c0-5.6-1.6-8.9-3-10-4-3.1-6.3-7.8-6.3-12.8v-28.2c0-2,.8-3.8,2.3-5.1,1.5-1.3,3.4-1.9,5.4-1.6,1.5.2,2.8.9,3.8,1.8,0,0,.1-.1.2-.2,1.5-1.3,3.4-1.9,5.4-1.6,1.5.2,2.8.9,3.8,1.8,1.2-1.2,2.9-1.9,4.7-1.9,3.8,0,6.8,3.1,6.8,6.8v28.2c0,5.1-2.2,9.8-6.2,12.9-1.4,1.1-3,4.3-3,10v50.2c0,3.1-2.6,5.7-5.7,5.7ZM6.8,23.2c-.4,0-.8.2-1.2.4-.4.3-.6.8-.6,1.3v28.2c0,3.5,1.6,6.7,4.3,8.8,3.1,2.4,4.9,7.5,4.9,14v50.2c0,.3.3.6.6.6h2.5c.3,0,.6-.3.6-.6v-50.2c0-6.5,1.8-11.6,5-14,2.8-2.1,4.4-5.4,4.4-8.9v-28.2c0-1-.9-1.7-1.8-1.7s-1.7.8-1.7,1.7v17.9c0,1.6-1.3,2.9-3,2.9s-3-1.3-3-2.9v-17.8c0-.9-.6-1.7-1.5-1.8-.5,0-1,0-1.4.4-.4.3-.6.8-.6,1.3v17.9c0,1.6-1.3,2.9-2.9,2.9s-2.9-1.3-2.9-2.9v-17.8c0-.9-.6-1.7-1.5-1.8,0,0-.2,0-.2,0Z"/>
    <path class="cls-1" d="M131,133.8h-2.4c-3.6,0-6.5-2.9-6.5-6.5v-53.2c0-2.9-.5-3.6-3.8-7-5-5.1-7.8-10.8-8.4-17-.9-8.6.5-21.3,7.1-28.4,3.4-3.7,7.8-5.5,12.9-5.5,5,0,9.5,1.8,12.9,5.5,6.6,7.1,8,19.8,7.1,28.4-.6,6.2-3.5,11.9-8.4,17-3.3,3.4-3.8,4.1-3.8,7v53.2c0,3.6-2.9,6.5-6.5,6.5ZM129.4,21.3c-3.5,0-6.5,1.3-8.8,3.8-5.1,5.5-6.6,16.3-5.8,24.5.5,5,2.9,9.7,7,13.9,3.6,3.7,5.3,5.6,5.3,10.5v53.2c0,.8.7,1.5,1.5,1.5h2.4c.8,0,1.5-.7,1.5-1.5v-53.2c0-4.9,1.7-6.9,5.3-10.5,4.1-4.3,6.5-9,7-13.9.8-8.2-.6-18.9-5.8-24.5h0c-2.4-2.6-5.5-3.9-9.1-3.8h0s0,0,0,0c0,0-.2,0-.3,0Z"/>
    <path class="cls-1" d="M74.6,111.4c-20.1,0-36.4-16.3-36.4-36.4s16.3-36.4,36.4-36.4,36.4,16.3,36.4,36.4-16.3,36.4-36.4,36.4ZM74.6,43.7c-17.3,0-31.3,14.1-31.3,31.3s14.1,31.3,31.3,31.3,31.3-14.1,31.3-31.3-14.1-31.3-31.3-31.3Z"/>
    <path class="cls-1" d="M74.6,128.1c-29.3,0-53.1-23.8-53.1-53.1s.5-8.2,1.4-12.2c.3-1.4,1.7-2.2,3-1.9,1.4.3,2.2,1.7,1.9,3-.8,3.6-1.3,7.3-1.3,11.1,0,26.5,21.5,48,48,48s44.1-17.6,47.5-41c.2-1.4,1.5-2.3,2.9-2.1,1.4.2,2.3,1.5,2.1,2.9-1.8,12.5-8.1,24-17.7,32.3-9.7,8.4-22,13.1-34.9,13.1Z"/>
    <path class="cls-1" d="M30,53.8c-.4,0-.8,0-1.2-.3-1.2-.7-1.7-2.2-1-3.4,9.3-17.3,27.2-28.1,46.9-28.1s29.4,6.4,39.5,17.6c.9,1,.9,2.6-.2,3.6-1,.9-2.6.9-3.6-.2-9.1-10.1-22.1-15.9-35.7-15.9s-34,9.7-42.4,25.4c-.5.9-1.3,1.3-2.2,1.3Z"/>
  </g>
</svg>