<?xml version="1.0" encoding="UTF-8"?>
<svg id="Layer_1" data-name="Layer 1" xmlns="http://www.w3.org/2000/svg" version="1.1" viewBox="0 0 150 150">
  <defs>
    <style>
      .cls-1 {
        fill: #e60012;
        stroke-width: 0px;
      }
    </style>
  </defs>
  <path class="cls-1" d="M110.2,67.7c-1.4,0-2.7-1-3-2.4-.3-1.6.7-3.2,2.4-3.6,16.7-3.4,24.3-8.5,24.3-11.9s-3.2-5.5-12.2-8.7c-1.6-.6-2.4-2.3-1.9-3.9.6-1.6,2.3-2.4,3.9-1.9,10.8,3.8,16.3,8.7,16.3,14.4,0,10.4-18.3,15.7-29.2,17.9-.2,0-.4,0-.6,0Z"/>
  <path class="cls-1" d="M63.4,70.5c0,0-.1,0-.2,0-24.5-1.4-53.2-7.6-53.2-20.8s13.2-14,24.3-16.8c1.6-.4,3.3.6,3.7,2.2.4,1.6-.6,3.3-2.2,3.7-13.6,3.4-19.7,7.9-19.7,10.9,0,5.1,16.5,13,47.4,14.7,1.7,0,3,1.5,2.9,3.2,0,1.6-1.4,2.9-3,2.9Z"/>
  <path class="cls-1" d="M61.8,99.5c0,0-.1,0-.2,0-21.8-1.4-39.4-6-47-12.4-1.3-1.1-1.5-3-.4-4.3,1.1-1.3,3-1.5,4.3-.4,6.6,5.5,23.2,9.7,43.5,11,1.7.1,2.9,1.6,2.8,3.2-.1,1.6-1.4,2.8-3,2.8Z"/>
  <path class="cls-1" d="M111.9,96.4c-1.4,0-2.7-1-3-2.4-.4-1.6.7-3.3,2.3-3.6,9.4-2,16.6-4.9,20.3-7.9,1.3-1.1,3.2-.9,4.3.4,1.1,1.3.9,3.2-.4,4.3-5.6,4.7-15.6,7.6-22.9,9.2-.2,0-.4,0-.6,0Z"/>
  <path class="cls-1" d="M61.1,111.4c0,0-.1,0-.2,0-19.8-1.3-36.5-5.5-44.7-11.1-1.4-1-1.7-2.8-.8-4.2,1-1.4,2.9-1.7,4.2-.8,7.3,5,22.9,8.8,41.6,10.1,1.7.1,2.9,1.6,2.8,3.2-.1,1.6-1.4,2.8-3,2.8Z"/>
  <path class="cls-1" d="M112.6,108.2c-1.4,0-2.6-1-3-2.4-.4-1.6.7-3.3,2.3-3.6,8.3-1.9,14.7-4.3,18.6-7,1.4-1,3.3-.6,4.2.7,1,1.4.6,3.3-.7,4.2-4.5,3.2-11.7,5.9-20.7,7.9-.2,0-.4,0-.7,0Z"/>
  <path class="cls-1" d="M75,149.9c-16.5,0-33.1-3.3-48.5-9.8-4.9-2.1-8.3-6.7-8.8-12l-7.7-78.1c-.2-1.7,1.1-3.2,2.7-3.3,1.6-.2,3.2,1.1,3.3,2.7l7.7,78.1c.3,3.1,2.3,5.8,5.1,7,29.3,12.4,62.9,12.4,92.2,0,2.8-1.2,4.8-3.9,5.1-7l7.7-78.1c.2-1.7,1.7-2.9,3.3-2.7,1.7.2,2.9,1.7,2.7,3.3l-7.7,78.1c-.5,5.4-3.9,10-8.8,12-15.4,6.5-31.9,9.8-48.5,9.8Z"/>
  <path class="cls-1" d="M75,150c-1.7,0-3-1.4-3-3v-24.4c0-1.7,1.4-3,3-3s3,1.4,3,3v24.4c0,1.7-1.4,3-3,3Z"/>
  <path class="cls-1" d="M105.9,146h0c-1.7,0-3-1.4-3-3.1l.5-20.4c0-1.7,1.4-3,3-3h0c1.7,0,3,1.4,3,3.1l-.5,20.4c0,1.7-1.4,3-3,3Z"/>
  <path class="cls-1" d="M43.2,97.4c-1.6,0-3-1.3-3-2.9l-1.4-29.3c0-1.7,1.2-3.1,2.9-3.2,1.6-.1,3.1,1.2,3.2,2.9l1.4,29.3c0,1.7-1.2,3.1-2.9,3.2,0,0,0,0-.1,0Z"/>
  <path class="cls-1" d="M44.1,146c-1.6,0-3-1.3-3-3l-.9-36.7c0-1.7,1.3-3.1,3-3.1,1.7,0,3.1,1.3,3.1,3l.9,36.7c0,1.7-1.3,3.1-3,3.1h0Z"/>
  <path class="cls-1" d="M108.7,125.6h-43.6c-2.1,0-4.1-.9-5.5-2.4-1.4-1.5-2.2-3.6-2.1-5.7l2.9-52.5c.2-3.9,3.5-7,7.4-7h38.1c3.9,0,7.2,3.1,7.4,7t0,0l2.9,52.5c.1,2.1-.6,4.1-2.1,5.7-1.4,1.5-3.4,2.4-5.5,2.4ZM67.8,64.2c-.7,0-1.3.5-1.3,1.2l-2.9,52.5c0,.6.2,1,.4,1.1.2.2.5.5,1.1.5h43.6c.6,0,.9-.3,1.1-.5.2-.2.4-.6.4-1.1l-2.9-52.5c0-.7-.6-1.2-1.3-1.2h-38.1Z"/>
  <path class="cls-1" d="M62.3,47.2h-22c-1.7,0-3-1.4-3-3s1.4-3,3-3h22c2.6,0,4.7-2,4.7-4.5s-2.1-4.5-4.7-4.5h-9.5c-6.4,0-11.6-5.1-11.6-11.4s5.2-11.4,11.6-11.4h21.2c1.7,0,3,1.4,3,3s-1.4,3-3,3h-21.2c-3.1,0-5.5,2.4-5.5,5.3s2.5,5.3,5.5,5.3h9.5c6,0,10.8,4.8,10.8,10.6s-4.9,10.6-10.8,10.6Z"/>
  <path class="cls-1" d="M90.6,52.3c-1.7,0-3-1.4-3-3v-6.9c0-7.7,6.2-13.9,13.9-13.9h12.7c2.2,0,3.9-1.8,3.9-3.9s-1.8-3.9-3.9-3.9h-13.7c-5.7,0-10.3-4.6-10.3-10.3S94.8,0,100.5,0h9.9c1.7,0,3,1.4,3,3s-1.4,3-3,3h-9.9c-2.3,0-4.2,1.9-4.2,4.2s1.9,4.2,4.2,4.2h13.7c5.5,0,10,4.5,10,10s-4.5,10-10,10h-12.7c-4.3,0-7.8,3.5-7.8,7.8v6.9c0,1.7-1.4,3-3,3Z"/>
</svg>