<svg width="14" height="18" viewBox="0 0 14 18" fill="none" xmlns="http://www.w3.org/2000/svg">
<g clip-path="url(#clip0_4743_431)">
<path d="M7.44738 0.0523256C7.18575 0.0261628 6.89796 0 6.63633 0C6.3747 0 6.08691 0 5.82528 0.0523256C3.4968 0.287791 1.56075 1.75291 0.592726 3.95058C-0.427623 6.3314 -0.11367 9.05232 1.40377 11.0669L6.63633 18L11.8689 11.0669C13.4125 9.02616 13.7003 6.30523 12.6799 3.95058C11.7119 1.75291 9.7497 0.287791 7.44738 0.0523256ZM6.63633 8.52907C5.459 8.52907 4.51714 7.58721 4.51714 6.40988C4.51714 5.23256 5.459 4.2907 6.63633 4.2907C7.81366 4.2907 8.75552 5.23256 8.75552 6.40988C8.75552 7.58721 7.81366 8.52907 6.63633 8.52907Z" fill="#58595B"/>
</g>
<defs>
<clipPath id="clip0_4743_431">
<rect width="13.2802" height="18" fill="white"/>
</clipPath>
</defs>
</svg>
