<?xml version="1.0" encoding="UTF-8"?>
<svg id="Layer_1" data-name="Layer 1" xmlns="http://www.w3.org/2000/svg" version="1.1" viewBox="0 0 150 150">
  <defs>
    <style>
      .cls-1 {
        fill: #e60012;
        stroke-width: 0px;
      }
    </style>
  </defs>
  <path class="cls-1" d="M85.3,133.1c-.7-.1-1.3,0-1.9.4-3.6,2.3-7,3.7-9.1,3.7-1.9,0-4.9-1.1-8.1-3-.6-.3-1.2-.4-1.9-.3-.6.2-1.2.6-1.5,1.1-.7,1.2-.3,2.7.9,3.4,4,2.4,7.8,3.7,10.6,3.7h0c3.1,0,7.3-1.6,11.8-4.5.6-.4.9-.9,1.1-1.6s0-1.3-.3-1.9c-.4-.6-.9-.9-1.6-1.1Z"/>
  <path class="cls-1" d="M63.7,90c-.7,0-1.3.1-1.8.5-.2.2-1.1.8-2.3.8h0c-1,0-1.8-.5-2.1-.8-.5-.4-1.2-.6-1.8-.5-.7,0-1.3.4-1.7.9-.4.5-.6,1.2-.5,1.8,0,.7.4,1.3.9,1.7.8.7,2.6,1.8,5.1,1.8h.2c2.6,0,4.4-1.1,5.3-1.8.5-.4.9-1,.9-1.7s-.1-1.3-.5-1.8c-.4-.5-1-.9-1.7-.9Z"/>
  <path class="cls-1" d="M94.1,94.4c1.1-.9,1.3-2.4.4-3.5-.8-1.1-2.4-1.3-3.5-.4-.2.2-1.1.8-2.3.8-1,0-1.8-.5-2.1-.8-.5-.4-1.2-.6-1.8-.5-.7,0-1.3.4-1.7.9-.4.5-.6,1.2-.5,1.8,0,.7.4,1.3.9,1.7.8.7,2.6,1.8,5.1,1.8h.2c2.6,0,4.4-1.1,5.3-1.8Z"/>
  <path class="cls-1" d="M64.2,117.1c-1.1.8-1.3,2.4-.5,3.5.4.6,4.3,5.6,11,5.6s.3,0,.4,0c6.3-.2,9.9-4.7,10.6-5.6.8-1.1.6-2.7-.5-3.5-1.1-.8-2.7-.6-3.5.5-.3.3-2.6,3.4-6.7,3.5-4.5,0-7.1-3.4-7.2-3.5-.8-1.1-2.4-1.3-3.5-.5Z"/>
  <path class="cls-1" d="M143.9,67l-19.9,14.8c-.6.4-.9,1.1-1,1.8l-1.8,23.9c0,.9-.4,1.8-1.1,2.4l-25.1,24.1c-.7-1.2-1.1-2.5-1.2-3.9,0-.4,0-.8,0-1.2,0-2.3,1-4.5,2.6-6.1l10.3-11.1c1.1.3,2.1.4,2.8.5,0,0,.1,0,.2,0,1,0,2.1-.4,2.8-1.1.8-.8,1.3-1.8,1.4-2.9l.9-21.9c0-.7-.2-1.3-.7-1.8-.5-.5-1.1-.8-1.7-.8-1.4,0-2.5,1-2.6,2.4l-.8,21c-.6,0-1.2-.2-1.8-.5-.2-.1-.4-.3-.6-.4-.2-.2-.4-.4-.6-.6-.4-.5-.5-1.2-.5-1.9,0-.1.5-13,.5-13,0-2-1-3.7-1.9-5.1-.3-.4-.5-.8-.7-1.1-1.3-2.7-1.2-5.8-.9-7.9.3-1.8.8-3.7,1.6-5.4,1.3-2.9,3.3-5.6,6.6-8.8.7-.7,1.5-1.5,2.5-2.3l27-22.1c1.1-.9,1.2-2.5.4-3.5-.9-1.1-2.5-1.2-3.5-.4l-16.8,13.7c-5.4-10.7-13.1-18.4-15.5-20.6-.4-3-1.7-5.9-3.9-8.3-7.1-7.8-18-11.8-29.4-10.8-22.3,2-36.5,21.4-42.5,38.8l-15.7-12.8c-.5-.4-1.2-.6-1.8-.6-.7,0-1.3.4-1.7.9-.9,1.1-.7,2.6.4,3.5l18.5,15.1s0,0,0,0l8.4,6.8c.6.5,1.2,1.1,1.8,1.6,2.7,2.6,5.7,5.7,7.4,9.5.6,1.3,1,2.6,1.3,3.9.9,3.7.7,7-.6,9.5-.2.3-.4.7-.7,1.2-.9,1.4-2,3.1-1.9,5,0,.1.5,13,.5,13.1,0,.6-.1,1.2-.4,1.7,0,0,0,.1-.1.2-.3.4-.7.7-1.2,1h-.1c-.5.3-1.1.5-1.7.6l-.8-21c0-1.4-1.2-2.4-2.6-2.4-.7,0-1.3.3-1.7.8-.5.5-.7,1.1-.7,1.8l.9,21.9c0,1.1.5,2.2,1.4,2.9.8.7,1.8,1.1,2.8,1.1s.1,0,.2,0c1,0,1.9-.2,2.8-.5l10.3,11.1c1.6,1.7,2.5,3.8,2.6,6.1,0,.7,0,1.4-.2,2.1-.2,1-.6,2.1-1.1,3l-25.1-24.1c-.7-.6-1-1.5-1.1-2.5l-1.8-23.8c0-.7-.4-1.4-1-1.8l-19.5-14.5c-1.1-.8-2.7-.6-3.5.5-.8,1.1-.6,2.7.5,3.5l18.6,13.8,1.7,22.6c0,2.2,1,4.3,2.6,5.8l26.2,25.2c.7.7,1.6,1,2.6,1s.2,0,.2,0c1,0,2-.6,2.7-1.4,1.5-1.9,2.5-4.1,2.9-6.4.2-1.1.3-2.2.2-3.2-.1-3.5-1.5-6.8-3.9-9.3l-9.6-10.3c.2-.2.3-.4.5-.6.1-.2.3-.4.4-.6.8-1.3,1.1-2.8,1.1-4.4l-.5-13c0-.5.7-1.5,1.1-2.2.3-.5.7-1.1,1-1.6,2-4,1.8-8.4,1.2-11.7,4.7-6.1,12.1-9.3,21.9-9.3s18.3,3.7,23,11c-.4,3.7,0,7.1,1.4,9.9.3.6.6,1.1,1,1.7.4.7,1.1,1.7,1.1,2.2,0,.1-.4,9.8-.5,13,0,1.8.4,3.6,1.4,5,.1.2.3.4.5.6l-9.6,10.3c-2.4,2.5-3.8,5.9-3.9,9.4,0,.6,0,1.2,0,1.8.2,2.9,1.3,5.6,3.1,7.8.6.8,1.6,1.3,2.7,1.4,0,0,.2,0,.2,0,.9,0,1.9-.4,2.6-1l26.2-25.2c1.6-1.5,2.5-3.6,2.6-5.7l1.7-22.7,19-14.1-3-4ZM50.7,69.3c0,0,0-.2-.1-.3-1.7-3.8-4.3-6.9-6.7-9.4,3.3-3.5,7.3-6.9,12-10.4,1.1-.8,1.3-2.4.5-3.5-.4-.5-1-.9-1.6-1-.7,0-1.3,0-1.9.5-4.9,3.6-9.1,7.3-12.6,10.9,0,0,0,0,0,0l-7.2-5.9c5.2-16.4,18.2-35.4,38.8-37.2,9.8-.9,19.2,2.6,25.2,9.2,2.5,2.7,3.4,6.4,2.4,10-1,3.8-3.8,6.5-6.8,9.5l-.4.4c-7.1,7-14.8,13.3-23,18.9-7.6.8-13.8,3.6-18.5,8.3ZM95.7,45.6l.4-.4c3.2-3.2,6.6-6.5,8-11.5,3.3,3.6,8.4,9.7,12,17.3l-6.3,5.1c-.1.1-.3.2-.4.3-4-6.3-8.7-9.1-8.9-9.2-1.2-.7-2.7-.3-3.4.9-.7,1.2-.3,2.7.8,3.4,0,0,4.3,2.7,7.8,8.5-3,3.1-5,6-6.3,9-.2.5-.4.9-.6,1.4-5-5.7-12-8.9-20.9-9.6,6.2-4.6,12.2-9.7,17.7-15.2Z"/>
</svg>