<?xml version="1.0" encoding="UTF-8"?>
<svg id="Layer_1" data-name="Layer 1" xmlns="http://www.w3.org/2000/svg" version="1.1" viewBox="0 0 150 150">
  <defs>
    <style>
      .cls-1 {
        fill: #e60012;
        stroke-width: 0px;
      }
    </style>
  </defs>
  <path class="cls-1" d="M146.9,119.2c-.8,0-1.6-.3-2.2-.9-4-4-10.2-5.4-15.4-3.4-4.4,1.6-9.2,1.6-13.6,0-3.3-1.2-6.9-1.2-10.2,0-4.4,1.6-9.2,1.6-13.6,0-3.2-1.2-6.9-1.2-10.2,0-4.4,1.6-9.2,1.6-13.6,0-3.2-1.2-6.9-1.2-10.2,0-4.4,1.6-9.2,1.6-13.6,0-3.2-1.2-6.9-1.2-10.2,0-4.4,1.6-9.2,1.6-13.6,0-5.3-2-11.4-.6-15.4,3.4-1.2,1.2-3.2,1.2-4.4,0-1.2-1.2-1.2-3.2,0-4.4,3.9-3.9,9.2-6.1,14.7-6.1s4.9.4,7.2,1.3c3,1.1,6.3,1.1,9.3,0,4.6-1.7,9.8-1.7,14.5,0,3,1.1,6.3,1.1,9.3,0,4.6-1.7,9.8-1.7,14.5,0,3,1.1,6.3,1.1,9.3,0,4.6-1.7,9.8-1.7,14.5,0,3,1.1,6.3,1.1,9.3,0,4.6-1.7,9.8-1.7,14.5,0,3,1.1,6.3,1.1,9.3,0,2.3-.9,4.8-1.3,7.2-1.3,5.6,0,10.8,2.2,14.7,6.1,1.2,1.2,1.2,3.2,0,4.4-.6.6-1.4.9-2.2.9Z"/>
  <path class="cls-1" d="M146.9,134.6c-.8,0-1.6-.3-2.2-.9-4-4-10.2-5.3-15.4-3.4-4.4,1.6-9.2,1.6-13.6,0-3.2-1.2-6.9-1.2-10.2,0-4.4,1.6-9.2,1.6-13.6,0-3.2-1.2-6.9-1.2-10.2,0-4.4,1.6-9.2,1.6-13.6,0-3.2-1.2-6.9-1.2-10.2,0-4.4,1.6-9.2,1.6-13.6,0-3.2-1.2-6.9-1.2-10.2,0-4.4,1.6-9.2,1.6-13.6,0-5.2-2-11.4-.6-15.4,3.4-1.2,1.2-3.2,1.2-4.4,0-1.2-1.2-1.2-3.2,0-4.4,3.9-3.9,9.2-6.1,14.7-6.1s4.9.4,7.2,1.3c3,1.1,6.3,1.1,9.3,0,4.6-1.7,9.9-1.7,14.5,0,3,1.1,6.3,1.1,9.3,0,4.6-1.7,9.9-1.7,14.5,0,3,1.1,6.3,1.1,9.3,0,4.6-1.7,9.9-1.7,14.5,0,3,1.1,6.3,1.1,9.3,0,4.6-1.7,9.9-1.7,14.5,0,3,1.1,6.3,1.1,9.3,0,2.3-.9,4.7-1.3,7.2-1.3,5.6,0,10.8,2.2,14.7,6.1,1.2,1.2,1.2,3.2,0,4.4-.6.6-1.4.9-2.2.9Z"/>
  <path class="cls-1" d="M146.9,150c-.8,0-1.6-.3-2.2-.9-4-4-10.2-5.4-15.4-3.4-4.4,1.6-9.2,1.6-13.6,0-3.3-1.2-6.9-1.2-10.2,0-4.4,1.6-9.2,1.6-13.6,0-3.3-1.2-6.9-1.2-10.2,0-4.4,1.6-9.2,1.6-13.6,0-3.3-1.2-6.9-1.2-10.2,0-4.4,1.6-9.2,1.6-13.6,0-3.3-1.2-6.9-1.2-10.2,0-4.4,1.6-9.2,1.6-13.6,0-5.3-2-11.4-.6-15.4,3.4-1.2,1.2-3.2,1.2-4.4,0-1.2-1.2-1.2-3.2,0-4.4,3.9-3.9,9.2-6.1,14.7-6.1s4.9.4,7.2,1.3c3,1.1,6.3,1.1,9.3,0,4.6-1.7,9.8-1.7,14.5,0,3,1.1,6.3,1.1,9.3,0,4.6-1.7,9.8-1.7,14.5,0,3,1.1,6.3,1.1,9.3,0,4.6-1.7,9.8-1.7,14.5,0,3,1.1,6.3,1.1,9.3,0,4.6-1.7,9.8-1.7,14.5,0,3,1.1,6.3,1.1,9.3,0,2.3-.9,4.8-1.3,7.2-1.3,5.6,0,10.8,2.2,14.7,6.1,1.2,1.2,1.2,3.2,0,4.4-.6.6-1.4.9-2.2.9Z"/>
  <path class="cls-1" d="M146.9,88.6c-.8,0-1.6-.3-2.2-.9-4-4-10.2-5.3-15.4-3.4-4.4,1.6-9.2,1.6-13.6,0-3.3-1.2-6.9-1.2-10.2,0-4.4,1.6-9.2,1.6-13.6,0-1.6-.6-3.3-.9-5.1-.9s-3.1-1.4-3.1-3.1,1.4-3.1,3.1-3.1c2.5,0,4.9.4,7.2,1.3,3,1.1,6.3,1.1,9.3,0,4.6-1.7,9.8-1.7,14.5,0,3,1.1,6.3,1.1,9.3,0,2.3-.9,4.8-1.3,7.2-1.3,5.6,0,10.8,2.2,14.7,6.1,1.2,1.2,1.2,3.2,0,4.4-.6.6-1.4.9-2.2.9Z"/>
  <path class="cls-1" d="M146.9,104c-.8,0-1.6-.3-2.2-.9-4-4-10.2-5.3-15.4-3.4-4.4,1.6-9.2,1.6-13.6,0-3.3-1.2-6.9-1.2-10.2,0-4.4,1.6-9.2,1.6-13.6,0-1.6-.6-3.3-.9-5.1-.9s-3.1-1.4-3.1-3.1,1.4-3.1,3.1-3.1c2.5,0,4.9.4,7.2,1.3,3,1.1,6.3,1.1,9.3,0,4.6-1.7,9.8-1.7,14.5,0,3,1.1,6.3,1.1,9.3,0,2.3-.9,4.8-1.3,7.2-1.3,5.6,0,10.8,2.2,14.7,6.1,1.2,1.2,1.2,3.2,0,4.4-.6.6-1.4.9-2.2.9Z"/>
  <path class="cls-1" d="M45.2,75.5c-9.1,0-16.5-7.4-16.5-16.5v-5.4c0-9.1,7.4-16.5,16.5-16.5s16.5,7.4,16.5,16.5v5.4c0,9.1-7.4,16.5-16.5,16.5ZM45.2,43.2c-5.7,0-10.4,4.6-10.4,10.4v5.4c0,5.7,4.6,10.4,10.4,10.4s10.4-4.6,10.4-10.4v-5.4c0-5.7-4.6-10.4-10.4-10.4Z"/>
  <path class="cls-1" d="M24.7,115.9c-1.2,0-2.4-.8-2.9-2l-7.3-19.4c0,0,0-.2,0-.3-1.5-5.6,1.9-11.4,7.5-13l10.3-2.8c1.3-.3,2.3-1.2,2.9-2.4l2.7-5.7c.7-1.5,2.6-2.2,4.1-1.5,1.5.7,2.2,2.6,1.5,4.1l-2.7,5.7c-1.3,2.8-3.8,4.9-6.8,5.7l-10.3,2.8c-2.3.6-3.7,3-3.2,5.3l7.2,19.2c.6,1.6-.2,3.4-1.8,4-.4.1-.7.2-1.1.2Z"/>
  <path class="cls-1" d="M66.2,114.3c-.4,0-.7,0-1.1-.2-1.6-.6-2.4-2.4-1.8-4l6.8-17.6c.5-2.3-.9-4.7-3.2-5.3l-10.3-2.8c-3-.8-5.5-2.9-6.8-5.7l-2.7-5.7c-.7-1.5,0-3.4,1.5-4.1,1.5-.7,3.4,0,4.1,1.5l2.7,5.7c.6,1.2,1.6,2.1,2.9,2.4l10.3,2.8c5.6,1.5,9,7.4,7.5,13,0,.1,0,.2-.1.3l-6.8,17.7c-.5,1.2-1.6,2-2.9,2ZM73.1,93.4h0,0Z"/>
  <path class="cls-1" d="M35.4,114.4c-1.5,0-2.8-1.1-3.1-2.7l-2.3-16.1c-.2-1.7.9-3.2,2.6-3.5,1.7-.2,3.2.9,3.5,2.6l2.3,16.1c.2,1.7-.9,3.2-2.6,3.5-.1,0-.3,0-.4,0Z"/>
  <path class="cls-1" d="M54.9,115.7c-.1,0-.3,0-.4,0-1.7-.2-2.9-1.8-2.6-3.5l2.4-17.3c.2-1.7,1.8-2.9,3.5-2.6,1.7.2,2.9,1.8,2.6,3.5l-2.4,17.3c-.2,1.5-1.5,2.7-3.1,2.7Z"/>
  <path class="cls-1" d="M58.7,56.6h-13.4c-1.7,0-3.1-1.4-3.1-3.1s1.4-3.1,3.1-3.1h13.4c1.7,0,3.1,1.4,3.1,3.1s-1.4,3.1-3.1,3.1Z"/>
  <path class="cls-1" d="M3.1,62.2C1.4,62.2,0,60.9,0,59.2v-30.5c0-1.7,1.4-3.1,3.1-3.1s3.1,1.4,3.1,3.1v30.5c0,1.7-1.4,3.1-3.1,3.1Z"/>
  <path class="cls-1" d="M17.8,62.2c-1.7,0-3.1-1.4-3.1-3.1v-30.5c0-1.7,1.4-3.1,3.1-3.1s3.1,1.4,3.1,3.1v30.5c0,1.7-1.4,3.1-3.1,3.1Z"/>
  <path class="cls-1" d="M93.2,65.7c-1.7,0-3.1-1.4-3.1-3.1V28.7c0-1.7,1.4-3.1,3.1-3.1s3.1,1.4,3.1,3.1v33.9c0,1.7-1.4,3.1-3.1,3.1Z"/>
  <path class="cls-1" d="M107.2,65.7c-1.7,0-3.1-1.4-3.1-3.1V28.7c0-1.7,1.4-3.1,3.1-3.1s3.1,1.4,3.1,3.1v33.9c0,1.7-1.4,3.1-3.1,3.1Z"/>
  <path class="cls-1" d="M121.2,65.7c-1.7,0-3.1-1.4-3.1-3.1V28.7c0-1.7,1.4-3.1,3.1-3.1s3.1,1.4,3.1,3.1v33.9c0,1.7-1.4,3.1-3.1,3.1Z"/>
  <path class="cls-1" d="M135.2,65.7c-1.7,0-3.1-1.4-3.1-3.1V28.7c0-1.7,1.4-3.1,3.1-3.1s3.1,1.4,3.1,3.1v33.9c0,1.7-1.4,3.1-3.1,3.1Z"/>
</svg>