<?xml version="1.0" encoding="UTF-8"?>
<svg id="Layer_1" data-name="Layer 1" xmlns="http://www.w3.org/2000/svg" version="1.1" viewBox="0 0 150 150">
  <defs>
    <style>
      .cls-1 {
        fill: #e60012;
        stroke-width: 0px;
      }
    </style>
  </defs>
  <g>
    <path class="cls-1" d="M101.8,54.2l.8-.6h0l-.8.6c1.9,2.2,3.2,3.8,3.8,7.2,1.1,6.1-5.4,14.6-5.5,14.6-1.6,2-1.2,4.9.8,6.4.8.6,1.8,1,2.8,1s2.7-.6,3.6-1.7c.4-.5,9.1-11.7,7.3-21.9-1-5.8-3.7-9-5.9-11.5-1.8-2.1-3.1-3.6-3.8-6.7-1.5-6.8,4.8-12.5,4.9-12.6,1.9-1.6,2.1-4.5.5-6.5-.8-.9-1.9-1.5-3.1-1.6-1.2,0-2.4.3-3.3,1.1-.4.4-10.6,9.2-7.9,21.6,1.2,5.3,3.7,8.3,5.8,10.7Z"/>
    <path class="cls-1" d="M41.3,54.2l.8-.6h0s0,0,0,0l-.8.6h0c1.9,2.2,3.2,3.8,3.8,7.2,1.1,6.1-5.4,14.6-5.5,14.6-1.6,2-1.2,4.9.8,6.4.8.6,1.8,1,2.8,1s2.7-.6,3.6-1.7c.4-.5,9.1-11.7,7.3-21.9-1-5.8-3.7-9-5.9-11.5-1.8-2.1-3.1-3.6-3.8-6.7-1.5-6.8,4.8-12.5,4.9-12.6,1.9-1.6,2.1-4.5.5-6.5-1.6-1.9-4.5-2.2-6.5-.5-.4.4-10.6,9.2-7.9,21.6,1.2,5.3,3.7,8.3,5.8,10.7Z"/>
    <path class="cls-1" d="M71.6,54.2l.8-.6h0l-.8.6c1.9,2.2,3.2,3.8,3.8,7.2,1.1,6.1-5.4,14.6-5.5,14.6-1.6,2-1.2,4.9.8,6.4.8.6,1.8,1,2.8,1s2.7-.6,3.6-1.7c.4-.5,9.1-11.7,7.3-21.9-1-5.8-3.7-9-5.9-11.5-1.8-2.1-3.1-3.6-3.8-6.7-1.5-6.8,4.8-12.5,4.9-12.6,1.9-1.6,2.1-4.5.5-6.5-.8-.9-1.9-1.5-3.1-1.6-1.2-.1-2.4.3-3.3,1.1-.4.4-10.6,9.2-7.9,21.6,1.2,5.3,3.7,8.3,5.8,10.7Z"/>
  </g>
  <path class="cls-1" d="M128.7,59.8c-1-.6-2.3-.8-3.5-.5-1.2.3-2.2,1-2.8,2.1-1.3,2.2-.6,5,1.6,6.3,8.2,5,11.9,11.3,11.9,20.5s-6,15.6-16.8,21.6c-11.7,6.5-27.3,10.1-44,10.1s-32.4-3.6-44-10.1c-10.8-6-16.8-13.7-16.8-21.6s3.7-15.5,11.9-20.5c2.1-1.3,2.9-4.1,1.6-6.3-.6-1.1-1.6-1.8-2.8-2.1-1.2-.3-2.4-.1-3.5.5-11,6.7-16.3,15.9-16.3,28.4s7.6,22,21.5,29.7c13,7.2,30.2,11.2,48.5,11.2s35.4-4,48.5-11.2c13.9-7.7,21.5-18.2,21.5-29.7s-5.3-21.7-16.3-28.4Z"/>
</svg>