<svg width="20" height="20" viewBox="0 0 20 20" fill="#A6A6A6" xmlns="http://www.w3.org/2000/svg">
<path d="M17.6209 4.17832C17.6152 4.17015 17.6063 4.16627 17.6002 4.15847C16.7076 2.9894 15.5573 2.04197 14.2389 1.38984C12.9205 0.737708 11.4694 0.398448 9.9985 0.398438C8.5276 0.398427 7.07652 0.737667 5.75808 1.38978C4.43964 2.04189 3.28937 2.98931 2.3967 4.15836C2.3907 4.1662 2.38165 4.17008 2.37598 4.17832C2.37206 4.184 2.37184 4.19081 2.36814 4.19656C1.09081 5.86096 0.398437 7.90038 0.398438 9.99844C0.398438 12.0965 1.09081 14.1359 2.36814 15.8003C2.37184 15.8061 2.37206 15.8129 2.37598 15.8186C2.38162 15.8267 2.39062 15.8306 2.39659 15.8384C3.28957 17.0079 4.44035 17.9556 5.75939 18.6077C7.07843 19.2599 8.53015 19.5989 10.0016 19.5984C11.4731 19.5979 12.9246 19.2579 14.2432 18.6049C15.5618 17.9519 16.7119 17.0034 17.6041 15.8333C17.6088 15.8271 17.6164 15.825 17.6209 15.8185C17.6248 15.8129 17.625 15.8061 17.6287 15.8003C18.9061 14.1359 19.5984 12.0965 19.5984 9.99842C19.5984 7.90037 18.9061 5.86095 17.6287 4.19654C17.625 4.19081 17.6248 4.184 17.6209 4.17832ZM16.9716 14.6758C16.3411 14.3057 15.6736 14.0026 14.98 13.7714C15.2172 12.7294 15.3518 11.6667 15.3819 10.5984H18.368C18.2676 12.0564 17.786 13.4624 16.9716 14.6758ZM1.62883 10.5984H4.61496C4.6451 11.6667 4.77971 12.7294 5.01687 13.7714C4.32329 14.0026 3.6558 14.3057 3.0253 14.6758C2.21085 13.4624 1.7293 12.0564 1.62883 10.5984ZM3.0253 5.32105C3.6558 5.69115 4.32329 5.99428 5.01687 6.22547C4.77971 7.26748 4.6451 8.3302 4.61496 9.39844H1.62883C1.7293 7.94048 2.21085 6.53447 3.0253 5.32105ZM10.5984 6.97991C11.6808 6.94642 12.7571 6.80446 13.8111 6.55616C14.0248 7.48966 14.1492 8.44137 14.1827 9.39844H10.5984V6.97991ZM10.5984 5.78044V1.69878C11.7894 2.05774 12.8361 3.45258 13.4891 5.40258C12.5401 5.622 11.572 5.74855 10.5984 5.78044ZM9.39844 1.69878V5.78044C8.42491 5.74856 7.4568 5.62202 6.50779 5.40262C7.16082 3.4526 8.20744 2.05774 9.39844 1.69878ZM9.39844 6.97991V9.39844H5.81419C5.84764 8.44137 5.97205 7.48966 6.18574 6.55616C7.23978 6.80446 8.31607 6.94642 9.39844 6.97991ZM5.81419 10.5984H9.39844V13.017C8.31607 13.0505 7.23978 13.1924 6.18574 13.4407C5.97205 12.5072 5.84764 11.5555 5.81419 10.5984ZM9.39844 14.2164V18.2981C8.20744 17.9391 7.16082 16.5443 6.50779 14.5943C7.4568 14.3749 8.42491 14.2483 9.39844 14.2164ZM10.5984 18.2981V14.2164C11.572 14.2483 12.5401 14.3748 13.4891 14.5943C12.8361 16.5443 11.7894 17.9391 10.5984 18.2981ZM10.5984 13.0169V10.5984H14.1827C14.1492 11.5555 14.0248 12.5072 13.8111 13.4407C12.7571 13.1924 11.6808 13.0504 10.5984 13.0169ZM15.3819 9.39844C15.3518 8.3302 15.2172 7.26748 14.98 6.22547C15.6736 5.99428 16.3411 5.69115 16.9716 5.32105C17.786 6.53447 18.2676 7.94048 18.368 9.39844H15.3819ZM16.2208 4.37545C15.7199 4.65632 15.1944 4.89065 14.6508 5.0755C14.3311 4.05531 13.8424 3.09603 13.2051 2.23762C14.3562 2.71819 15.3862 3.44837 16.2208 4.37545ZM6.79176 2.23762C6.15447 3.09602 5.6658 4.05531 5.3461 5.0755C4.80246 4.89065 4.27692 4.65632 3.77609 4.37545C4.61066 3.44838 5.64066 2.71819 6.79176 2.23762ZM3.77611 15.6214C4.27695 15.3406 4.80249 15.1062 5.34613 14.9214C5.66582 15.9416 6.1545 16.9008 6.79179 17.7592C5.64069 17.2787 4.61068 16.5485 3.77611 15.6214ZM13.2051 17.7592C13.8424 16.9008 14.331 15.9416 14.6507 14.9214C15.1944 15.1062 15.7199 15.3406 16.2208 15.6214C15.3862 16.5485 14.3562 17.2787 13.2051 17.7592Z" fill="#A6A6A6"/>
</svg>
