<?xml version="1.0" encoding="UTF-8"?>
<svg id="Layer_1" data-name="Layer 1" xmlns="http://www.w3.org/2000/svg" version="1.1" viewBox="0 0 150 150">
  <defs>
    <style>
      .cls-1 {
        fill: #e60012;
        stroke-width: 0px;
      }
    </style>
  </defs>
  <path class="cls-1" d="M146.8,115.2H3.2c-.9,0-1.8-.4-2.4-1.2-.6-.7-.8-1.7-.7-2.6L20.7,6c.3-1.5,1.6-2.6,3.1-2.6h102.3c1.5,0,2.8,1.1,3.1,2.6l20.7,105.4c.2.9,0,1.9-.7,2.6-.6.7-1.5,1.2-2.4,1.2ZM7,108.9h136L123.6,9.8H26.4L7,108.9Z"/>
  <path class="cls-1" d="M128.4,99.7H21.6c-.9,0-1.8-.4-2.4-1.2-.6-.7-.8-1.7-.6-2.6l15.5-76.2c.3-1.5,1.6-2.5,3.1-2.5h75.8c1.5,0,2.8,1.1,3.1,2.5l15.5,76.2c.2.9,0,1.9-.6,2.6-.6.7-1.5,1.2-2.4,1.2ZM25.5,93.4h99.1l-14.2-69.8H39.7l-14.2,69.8Z"/>
  <path class="cls-1" d="M57.5,61.3h-10.8c-1.7,0-3.2-1.4-3.2-3.2s1.4-3.2,3.2-3.2h10.8c1.7,0,3.2,1.4,3.2,3.2s-1.4,3.2-3.2,3.2Z"/>
  <path class="cls-1" d="M103.6,61.3h-20.1c-1.7,0-3.2-1.4-3.2-3.2s1.4-3.2,3.2-3.2h20.1c1.7,0,3.2,1.4,3.2,3.2s-1.4,3.2-3.2,3.2Z"/>
  <path class="cls-1" d="M108.4,78.1H41.6c-1.7,0-3.2-1.4-3.2-3.2s1.4-3.2,3.2-3.2h66.7c1.7,0,3.2,1.4,3.2,3.2s-1.4,3.2-3.2,3.2Z"/>
  <path class="cls-1" d="M99.4,41.1h-48.7c-1.7,0-3.2-1.4-3.2-3.2s1.4-3.2,3.2-3.2h48.7c1.7,0,3.2,1.4,3.2,3.2s-1.4,3.2-3.2,3.2Z"/>
  <path class="cls-1" d="M37.1,23.5c-.8,0-1.7-.3-2.3-1l-13.3-13.7c-1.2-1.3-1.2-3.3,0-4.5,1.3-1.2,3.3-1.2,4.5,0l13.3,13.7c1.2,1.3,1.2,3.3,0,4.5-.6.6-1.4.9-2.2.9Z"/>
  <path class="cls-1" d="M112.9,23.5c-.8,0-1.6-.3-2.2-.9-1.3-1.2-1.3-3.2,0-4.5l13.3-13.7c1.2-1.3,3.2-1.3,4.5,0,1.3,1.2,1.3,3.2,0,4.5l-13.3,13.7c-.6.6-1.4,1-2.3,1Z"/>
  <path class="cls-1" d="M146.8,146.5H3.2C1.4,146.5,0,145.1,0,143.3v-31.3c0-.9.4-1.8,1.1-2.4l18.4-15.5c1.3-1.1,3.3-1,4.5.4,1.1,1.3,1,3.3-.4,4.5l-17.3,14.6v26.7h137.4v-26.7l-17.3-14.6c-1.3-1.1-1.5-3.1-.4-4.5,1.1-1.3,3.1-1.5,4.5-.4l18.4,15.5c.7.6,1.1,1.5,1.1,2.4v31.3c0,1.7-1.4,3.2-3.2,3.2Z"/>
</svg>